<svg width="80" height="80" viewBox="0 0 80 80" fill="none" xmlns="http://www.w3.org/2000/svg">
<rect width="80" height="80" rx="10" fill="#800080" fill-opacity="0.3"/>
<g clip-path="url(#clip0_6_2)">
<rect x="15" y="15" width="50" height="50" rx="8" fill="#800080"/>
<path d="M42.4194 29.8023C42.4194 29.3592 42.0511 29 41.5968 29C41.1425 29 40.7742 29.3592 40.7742 29.8023V43.2128C39.8423 42.3597 38.5885 41.8372 37.2097 41.8372C34.3325 41.8372 32 44.1122 32 46.9186C32 49.725 34.3325 52 37.2097 52C40.087 52 42.4194 49.725 42.4194 46.9186V34.3413C43.7766 35.9773 45.8517 37.0233 48.1774 37.0233C48.6317 37.0233 49 36.664 49 36.2209C49 35.7778 48.6317 35.4186 48.1774 35.4186C44.9973 35.4186 42.4194 32.9041 42.4194 29.8023Z" fill="#D600D6"/>
</g>
<defs>
<clipPath id="clip0_6_2">
<rect width="50" height="50" fill="white" transform="translate(15 15)"/>
</clipPath>
</defs>
</svg>
